# xmcd
#
# Track frame offsets:
#	150
#	12409
#	29212
#	46059
#	58980
#	80209
#	94300
#	115032
#	129851
#	148638
#	162093
#	179651
#	194702
#	215578
#	250045
#
# Disc length: 3346 seconds
#
# Revision: 0
# Processed by: cddbd v1.4PL0 Copyright (c) Steve Scherf et al.
# Submitted via: dBpowerAMP V4.0
#
DISCID=e00d100f
DTITLE=Bruno and Marrone - Uma nova história
DYEAR=1900
DGENRE=
TTITLE0=Dormi na praça
TTITLE1=Vida vazia
TTITLE2=Agarrada em mim
TTITLE3=Feriado Nacional
TTITLE4=Passou da conta
TTITLE5=Amor de carnaval
TTITLE6=Por um minuto
TTITLE7=Programa de fim de semana
TTITLE8=Meu jeito de sentir
TTITLE9=Vivendo de passado
TTITLE10=A solidão é uma ressaca
TTITLE11=Só sei te amar
TTITLE12=Medo
TTITLE13=Tenho ciúme de tudo/A dama de vermelho/brigas
TTITLE14=DATA
EXTD=
EXTT0=
EXTT1=
EXTT2=
EXTT3=
EXTT4=
EXTT5=
EXTT6=
EXTT7=
EXTT8=
EXTT9=
EXTT10=
EXTT11=
EXTT12=
EXTT13=
EXTT14=
PLAYORDER=
